<?xml version="1.0" encoding="UTF-8" standalone="no"?>
<svg
   width="864.00pt"
   height="504.00pt"
   viewBox="0 0 864.00 504.00"
   version="1.1"
   id="svg58"
   sodipodi:docname="fig2.svg"
   inkscape:export-filename="fig2.png"
   inkscape:export-xdpi="600"
   inkscape:export-ydpi="600"
   inkscape:version="1.4.2 (f4327f4, 2025-05-13)"
   xmlns:inkscape="http://www.inkscape.org/namespaces/inkscape"
   xmlns:sodipodi="http://sodipodi.sourceforge.net/DTD/sodipodi-0.dtd"
   xmlns="http://www.w3.org/2000/svg"
   xmlns:svg="http://www.w3.org/2000/svg">
  <defs
     id="defs58" />
  <sodipodi:namedview
     id="namedview58"
     pagecolor="#505050"
     bordercolor="#eeeeee"
     borderopacity="1"
     inkscape:showpageshadow="0"
     inkscape:pageopacity="0"
     inkscape:pagecheckerboard="0"
     inkscape:deskcolor="#505050"
     inkscape:document-units="pt"
     inkscape:zoom="1.2395833"
     inkscape:cx="576"
     inkscape:cy="206.92437"
     inkscape:window-width="1920"
     inkscape:window-height="1051"
     inkscape:window-x="-9"
     inkscape:window-y="-9"
     inkscape:window-maximized="1"
     inkscape:current-layer="g57" />
  <g
     class="svglite"
     id="g58">
    <defs
       id="defs1">
      <style
         type="text/css"
         id="style1"><![CDATA[
    .svglite line, .svglite polyline, .svglite polygon, .svglite path, .svglite rect, .svglite circle {
      fill: none;
      stroke: #000000;
      stroke-linecap: round;
      stroke-linejoin: round;
      stroke-miterlimit: 10.00;
    }
    .svglite text {
      white-space: pre;
    }
    .svglite g.glyphgroup path {
      fill: inherit;
      stroke: none;
    }
  ]]></style>
    </defs>
    <rect
       width="100%"
       height="100%"
       style="stroke: none; fill: #FFFFFF;"
       id="rect1" />
    <defs
       id="defs2">
      <clipPath
         id="cpMC4wMHw4NjQuMDB8MC4wMHw1MDQuMDA=">
        <rect
           x="0.00"
           y="0.00"
           width="864.00"
           height="504.00"
           id="rect2" />
      </clipPath>
    </defs>
    <g
       clip-path="url(#cpMC4wMHw4NjQuMDB8MC4wMHw1MDQuMDA=)"
       id="g3">
      <rect
         x="0.00"
         y="0.00"
         width="864.00"
         height="504.00"
         style="stroke-width: 1.07; stroke: #FFFFFF; fill: #FFFFFF;"
         id="rect3" />
    </g>
    <defs
       id="defs4">
      <clipPath
         id="cpNTQuMjl8ODU4LjUyfDQ0LjY4fDQ2MC45OA==">
        <rect
           x="54.29"
           y="44.68"
           width="804.23"
           height="416.31"
           id="rect4" />
      </clipPath>
    </defs>
    <g
       clip-path="url(#cpNTQuMjl8ODU4LjUyfDQ0LjY4fDQ2MC45OA==)"
       id="g28"
       transform="translate(0.60504202,-1.210084)">
      <rect
         x="54.290001"
         y="44.68"
         width="804.22998"
         height="416.31"
         style="fill:#ffffff;stroke:none;stroke-width:1.07"
         id="rect5" />
      <line
         x1="106.21"
         y1="266.17001"
         x2="113.13"
         y2="380.85001"
         style="stroke:#228b22;stroke-width:0.85;stroke-linecap:butt;stroke-dasharray:4.55, 4.55;stroke-opacity:0.6"
         id="line5" />
      <line
         x1="147.28"
         y1="422.26001"
         x2="113.13"
         y2="380.85001"
         style="stroke:#228b22;stroke-width:0.85;stroke-linecap:butt;stroke-dasharray:4.55, 4.55;stroke-opacity:0.6"
         id="line6" />
      <line
         x1="88.660004"
         y1="392.91"
         x2="113.13"
         y2="380.85001"
         style="stroke:#228b22;stroke-width:0.85;stroke-linecap:butt;stroke-dasharray:4.55, 4.55;stroke-opacity:0.6"
         id="line7" />
      <line
         x1="110.37"
         y1="442.06"
         x2="113.13"
         y2="380.85001"
         style="stroke:#228b22;stroke-width:0.85;stroke-linecap:butt;stroke-dasharray:4.55, 4.55;stroke-opacity:0.6"
         id="line8" />
      <line
         x1="776.03998"
         y1="390.03"
         x2="531.57001"
         y2="291.38"
         style="stroke:#00ff7f;stroke-width:0.85;stroke-linecap:butt;stroke-dasharray:4.55, 4.55;stroke-opacity:0.6"
         id="line9" />
      <line
         x1="584.03998"
         y1="274.06"
         x2="531.57001"
         y2="291.38"
         style="stroke:#00ff7f;stroke-width:0.85;stroke-linecap:butt;stroke-dasharray:4.55, 4.55;stroke-opacity:0.6"
         id="line10" />
      <line
         x1="447.07999"
         y1="437.84"
         x2="531.57001"
         y2="291.38"
         style="stroke:#00ff7f;stroke-width:0.85;stroke-linecap:butt;stroke-dasharray:4.55, 4.55;stroke-opacity:0.6"
         id="line11" />
      <line
         x1="319.14001"
         y1="63.599998"
         x2="531.57001"
         y2="291.38"
         style="stroke:#00ff7f;stroke-width:0.85;stroke-linecap:butt;stroke-dasharray:4.55, 4.55;stroke-opacity:0.6"
         id="line12" />
      <line
         x1="183.03999"
         y1="223.89999"
         x2="181.56"
         y2="296.78"
         style="stroke:#8b4500;stroke-width:0.85;stroke-linecap:butt;stroke-dasharray:4.55, 4.55;stroke-opacity:0.6"
         id="line13" />
      <line
         x1="205.91"
         y1="312.67999"
         x2="181.56"
         y2="296.78"
         style="stroke:#8b4500;stroke-width:0.85;stroke-linecap:butt;stroke-dasharray:4.55, 4.55;stroke-opacity:0.6"
         id="line14" />
      <line
         x1="164.63"
         y1="375.16"
         x2="181.56"
         y2="296.78"
         style="stroke:#8b4500;stroke-width:0.85;stroke-linecap:butt;stroke-dasharray:4.55, 4.55;stroke-opacity:0.6"
         id="line15" />
      <line
         x1="172.64999"
         y1="275.39999"
         x2="181.56"
         y2="296.78"
         style="stroke:#8b4500;stroke-width:0.85;stroke-linecap:butt;stroke-dasharray:4.55, 4.55;stroke-opacity:0.6"
         id="line16" />
      <polygon
         points="127.07,267.02 125.11,267.34 123.11,268.05 121.08,269.14 119.03,270.62 116.95,272.47 114.87,274.69 112.79,277.27 110.72,280.2 108.66,283.47 106.63,287.07 104.63,290.98 102.67,295.18 100.76,299.66 98.9,304.41 97.11,309.4 95.39,314.61 93.74,320.03 92.18,325.62 90.71,331.38 89.33,337.27 88.05,343.28 86.88,349.37 85.82,355.53 84.88,361.74 84.05,367.96 83.34,374.17 82.76,380.35 82.31,386.47 81.98,392.51 81.78,398.45 81.72,404.26 81.78,409.92 81.98,415.41 82.3,420.7 82.75,425.77 83.33,430.61 84.04,435.2 84.87,439.51 85.81,443.53 86.87,447.24 88.04,450.64 89.31,453.7 90.69,456.42 92.16,458.77 93.72,460.77 95.37,462.38 97.09,463.62 98.88,464.47 100.74,464.94 102.65,465.01 104.61,464.69 106.61,463.99 108.64,462.89 110.69,461.42 112.77,459.57 114.85,457.35 116.93,454.76 119,451.83 121.06,448.56 123.09,444.97 125.09,441.06 127.05,436.85 128.96,432.37 130.82,427.62 132.61,422.64 134.33,417.42 135.98,412.01 137.54,406.41 139.01,400.66 140.39,394.76 141.67,388.76 142.84,382.66 143.9,376.5 144.84,370.3 145.67,364.08 146.38,357.87 146.96,351.69 147.41,345.56 147.74,339.52 147.94,333.58 148,327.77 147.94,322.11 147.74,316.63 147.42,311.34 146.97,306.26 146.39,301.42 145.68,296.84 144.85,292.53 143.91,288.51 142.85,284.79 141.68,281.4 140.41,278.33 139.03,275.62 137.56,273.26 136,271.27 134.35,269.65 132.63,268.41 130.84,267.56 128.98,267.1 "
         style="fill:#228b22;fill-opacity:0.15;stroke:#228b22;stroke-width:1.07"
         id="polygon16" />
      <polygon
         points="191.57,218.72 190.13,219.09 188.66,219.79 187.18,220.82 185.68,222.19 184.18,223.88 182.68,225.89 181.19,228.21 179.71,230.83 178.24,233.74 176.8,236.93 175.38,240.39 174.01,244.1 172.67,248.05 171.37,252.22 170.13,256.6 168.94,261.16 167.82,265.9 166.75,270.79 165.76,275.81 164.84,280.95 163.99,286.18 163.23,291.48 162.54,296.83 161.95,302.22 161.44,307.61 161.02,312.99 160.69,318.33 160.45,323.63 160.31,328.84 160.26,333.96 160.3,338.97 160.44,343.83 160.68,348.55 161,353.09 161.42,357.43 161.93,361.57 162.52,365.48 163.2,369.16 163.96,372.57 164.81,375.72 165.73,378.59 166.72,381.16 167.78,383.44 168.9,385.4 170.09,387.04 171.33,388.35 172.62,389.34 173.96,389.99 175.33,390.3 176.75,390.28 178.19,389.91 179.65,389.21 181.13,388.17 182.63,386.81 184.13,385.12 185.63,383.11 187.13,380.79 188.61,378.17 190.07,375.26 191.52,372.07 192.93,368.61 194.31,364.9 195.65,360.95 196.94,356.78 198.18,352.4 199.37,347.84 200.5,343.1 201.56,338.21 202.55,333.19 203.48,328.05 204.32,322.82 205.09,317.52 205.77,312.17 206.37,306.78 206.88,301.39 207.3,296.01 207.63,290.66 207.86,285.37 208.01,280.16 208.06,275.04 208.01,270.03 207.87,265.16 207.64,260.45 207.31,255.91 206.89,251.57 206.39,247.43 205.79,243.52 205.11,239.84 204.35,236.43 203.51,233.28 202.59,230.41 201.6,227.84 200.54,225.56 199.41,223.6 198.23,221.96 196.99,220.64 195.69,219.66 194.36,219.01 192.98,218.7 "
         style="fill:#8b4500;fill-opacity:0.15;stroke:#8b4500;stroke-width:1.07"
         id="polygon17" />
      <polygon
         points="762.69,87.55 755.25,81.27 746.85,75.83 737.53,71.27 727.33,67.61 716.29,64.85 704.45,63 691.86,62.08 678.57,62.09 664.63,63.02 650.09,64.88 635.02,67.66 619.47,71.34 603.5,75.91 587.19,81.36 570.58,87.66 553.75,94.78 536.76,102.7 519.69,111.39 502.59,120.82 485.54,130.94 468.6,141.71 451.84,153.1 435.33,165.06 419.12,177.54 403.29,190.49 387.9,203.86 373.01,217.6 358.67,231.66 344.95,245.97 331.89,260.48 319.56,275.14 307.99,289.89 297.23,304.66 287.33,319.41 278.33,334.07 270.25,348.58 263.14,362.89 257.02,376.94 251.91,390.67 247.84,404.04 244.82,416.98 242.86,429.45 241.97,441.4 242.15,452.78 243.41,463.55 245.74,473.66 249.13,483.07 253.56,491.75 259.02,499.66 265.48,506.77 272.93,513.05 281.33,518.49 290.65,523.05 300.85,526.71 311.89,529.47 323.73,531.32 336.32,532.24 349.61,532.23 363.55,531.3 378.09,529.44 393.16,526.66 408.71,522.98 424.67,518.41 440.99,512.96 457.6,506.66 474.43,499.54 491.41,491.62 508.49,482.93 525.59,473.5 542.64,463.38 559.58,452.61 576.34,441.22 592.85,429.26 609.05,416.78 624.88,403.83 640.27,390.46 655.17,376.72 669.5,362.66 683.23,348.35 696.28,333.84 708.62,319.18 720.19,304.43 730.95,289.66 740.85,274.91 749.85,260.25 757.92,245.74 765.04,231.43 771.16,217.38 776.27,203.65 780.34,190.28 783.36,177.34 785.32,164.87 786.21,152.92 786.02,141.54 784.76,130.77 782.44,120.66 779.05,111.25 774.62,102.57 769.16,94.66 "
         style="fill:#00ff7f;fill-opacity:0.15;stroke:#00ff7f;stroke-width:1.07"
         id="polygon18" />
      <circle
         cx="106.21"
         cy="266.17001"
         r="3.5599999"
         style="fill:#228b22;stroke:#228b22;stroke-width:0.71"
         id="circle18" />
      <circle
         cx="147.28"
         cy="422.26001"
         r="3.5599999"
         style="fill:#228b22;stroke:#228b22;stroke-width:0.71"
         id="circle19" />
      <circle
         cx="88.660004"
         cy="392.91"
         r="3.5599999"
         style="fill:#228b22;stroke:#228b22;stroke-width:0.71"
         id="circle20" />
      <circle
         cx="110.37"
         cy="442.06"
         r="3.5599999"
         style="fill:#228b22;stroke:#228b22;stroke-width:0.71"
         id="circle21" />
      <polygon
         points="780.82,392.79 771.25,392.79 776.04,384.5 "
         style="fill:#00ff7f;stroke:#00ff7f;stroke-width:0.71"
         id="polygon21" />
      <polygon
         points="588.83,276.83 579.25,276.83 584.04,268.53 "
         style="fill:#00ff7f;stroke:#00ff7f;stroke-width:0.71"
         id="polygon22" />
      <polygon
         points="451.87,440.61 442.29,440.61 447.08,432.31 "
         style="fill:#00ff7f;stroke:#00ff7f;stroke-width:0.71"
         id="polygon23" />
      <polygon
         points="323.93,66.36 314.35,66.36 319.14,58.07 "
         style="fill:#00ff7f;stroke:#00ff7f;stroke-width:0.71"
         id="polygon24" />
      <rect
         x="179.89"
         y="220.75"
         width="6.3000002"
         height="6.3000002"
         style="fill:#8b4500;stroke:#8b4500;stroke-width:0.71"
         id="rect24" />
      <rect
         x="202.75"
         y="309.53"
         width="6.3000002"
         height="6.3000002"
         style="fill:#8b4500;stroke:#8b4500;stroke-width:0.71"
         id="rect25" />
      <rect
         x="161.48"
         y="372.01001"
         width="6.3000002"
         height="6.3000002"
         style="fill:#8b4500;stroke:#8b4500;stroke-width:0.71"
         id="rect26" />
      <rect
         x="169.5"
         y="272.25"
         width="6.3000002"
         height="6.3000002"
         style="fill:#8b4500;stroke:#8b4500;stroke-width:0.71"
         id="rect27" />
      <circle
         cx="113.13"
         cy="380.85001"
         r="5.6900001"
         style="fill:#228b22;stroke:#228b22;stroke-width:0.71"
         id="circle27" />
      <rect
         x="176.50999"
         y="291.73999"
         width="10.08"
         height="10.08"
         style="fill:#8b4500;stroke:#8b4500;stroke-width:0.71"
         id="rect28" />
      <polygon
         points="539.24,295.81 523.91,295.81 531.57,282.54 "
         style="fill:#00ff7f;stroke:#00ff7f;stroke-width:0.71"
         id="polygon28" />
      <text
         x="848.78998"
         y="444.03"
         text-anchor="end"
         style="font-size:17.07px;font-family:'Times New Roman'"
         textLength="97.309998"
         lengthAdjust="spacingAndGlyphs"
         id="text28">Stress = 0.063</text>
    </g>
    <g
       clip-path="url(#cpMC4wMHw4NjQuMDB8MC4wMHw1MDQuMDA=)"
       id="g57">
      <polyline
         points="54.29,460.98 54.29,44.68 "
         style="stroke-width: 1.07; stroke-linecap: square;"
         id="polyline28" />
      <text
         x="49.36"
         y="414.89"
         text-anchor="end"
         style="font-size: 16.00px; font-family: &quot;Times New Roman&quot;;"
         textLength="25.33px"
         lengthAdjust="spacingAndGlyphs"
         id="text29">-0.2</text>
      <text
         x="49.36"
         y="328.30"
         text-anchor="end"
         style="font-size: 16.00px; font-family: &quot;Times New Roman&quot;;"
         textLength="20.00px"
         lengthAdjust="spacingAndGlyphs"
         id="text30">0.0</text>
      <text
         x="49.36"
         y="241.72"
         text-anchor="end"
         style="font-size: 16.00px; font-family: &quot;Times New Roman&quot;;"
         textLength="20.00px"
         lengthAdjust="spacingAndGlyphs"
         id="text31">0.2</text>
      <text
         x="49.36"
         y="155.13"
         text-anchor="end"
         style="font-size: 16.00px; font-family: &quot;Times New Roman&quot;;"
         textLength="20.00px"
         lengthAdjust="spacingAndGlyphs"
         id="text32">0.4</text>
      <text
         x="49.36"
         y="68.55"
         text-anchor="end"
         style="font-size: 16.00px; font-family: &quot;Times New Roman&quot;;"
         textLength="20.00px"
         lengthAdjust="spacingAndGlyphs"
         id="text33">0.6</text>
      <polyline
         points="51.55,409.59 54.29,409.59 "
         style="stroke-width: 1.07; stroke-linecap: butt;"
         id="polyline33" />
      <polyline
         points="51.55,323.01 54.29,323.01 "
         style="stroke-width: 1.07; stroke-linecap: butt;"
         id="polyline34" />
      <polyline
         points="51.55,236.42 54.29,236.42 "
         style="stroke-width: 1.07; stroke-linecap: butt;"
         id="polyline35" />
      <polyline
         points="51.55,149.84 54.29,149.84 "
         style="stroke-width: 1.07; stroke-linecap: butt;"
         id="polyline36" />
      <polyline
         points="51.55,63.25 54.29,63.25 "
         style="stroke-width: 1.07; stroke-linecap: butt;"
         id="polyline37" />
      <polyline
         points="54.29,460.98 858.52,460.98 "
         style="stroke-width: 1.07; stroke-linecap: square;"
         id="polyline38" />
      <polyline
         points="97.77,463.72 97.77,460.98 "
         style="stroke-width: 1.07; stroke-linecap: butt;"
         id="polyline39" />
      <polyline
         points="275.42,463.72 275.42,460.98 "
         style="stroke-width: 1.07; stroke-linecap: butt;"
         id="polyline40" />
      <polyline
         points="453.07,463.72 453.07,460.98 "
         style="stroke-width: 1.07; stroke-linecap: butt;"
         id="polyline41" />
      <polyline
         points="630.73,463.72 630.73,460.98 "
         style="stroke-width: 1.07; stroke-linecap: butt;"
         id="polyline42" />
      <polyline
         points="808.38,463.72 808.38,460.98 "
         style="stroke-width: 1.07; stroke-linecap: butt;"
         id="polyline43" />
      <text
         x="97.77"
         y="476.51"
         text-anchor="middle"
         style="font-size: 16.00px; font-family: &quot;Times New Roman&quot;;"
         textLength="25.33px"
         lengthAdjust="spacingAndGlyphs"
         id="text43">-0.5</text>
      <text
         x="275.42"
         y="476.51"
         text-anchor="middle"
         style="font-size: 16.00px; font-family: &quot;Times New Roman&quot;;"
         textLength="20.00px"
         lengthAdjust="spacingAndGlyphs"
         id="text44">0.0</text>
      <text
         x="453.07"
         y="476.51"
         text-anchor="middle"
         style="font-size: 16.00px; font-family: &quot;Times New Roman&quot;;"
         textLength="20.00px"
         lengthAdjust="spacingAndGlyphs"
         id="text45">0.5</text>
      <text
         x="630.73"
         y="476.51"
         text-anchor="middle"
         style="font-size: 16.00px; font-family: &quot;Times New Roman&quot;;"
         textLength="20.00px"
         lengthAdjust="spacingAndGlyphs"
         id="text46">1.0</text>
      <text
         x="808.38"
         y="476.51"
         text-anchor="middle"
         style="font-size: 16.00px; font-family: &quot;Times New Roman&quot;;"
         textLength="20.00px"
         lengthAdjust="spacingAndGlyphs"
         id="text47">1.5</text>
      <text
         x="456.41"
         y="494.63"
         text-anchor="middle"
         style="font-size: 18.00px; font-weight: bold; font-family: &quot;Times New Roman&quot;;"
         textLength="62.00px"
         lengthAdjust="spacingAndGlyphs"
         id="text48">NMDS1</text>
      <text
         transform="translate(17.40,252.83) rotate(-90)"
         text-anchor="middle"
         style="font-size: 18.00px; font-weight: bold; font-family: &quot;Times New Roman&quot;;"
         textLength="62.00px"
         lengthAdjust="spacingAndGlyphs"
         id="text49">NMDS2</text>
      <rect
         x="201.52"
         y="5.48"
         width="509.77"
         height="28.24"
         style="stroke-width: 1.07; stroke: none; fill: #FFFFFF;"
         id="rect49" />
      <text
         x="207"
         y="25.559999"
         style="font-weight:bold;font-size:18px;font-family:'Times New Roman'"
         textLength="127.78"
         lengthAdjust="spacingAndGlyphs"
         id="text50"
         transform="translate(-58.5)">Vegetation cover</text>
      <rect
         x="298.26001"
         y="10.96"
         width="17.280001"
         height="17.280001"
         style="fill:#ffffff;stroke:none;stroke-width:1.07"
         id="rect50" />
      <line
         x1="299.98999"
         y1="19.6"
         x2="313.81"
         y2="19.6"
         style="stroke:#228b22;stroke-width:0.85;stroke-linecap:butt;stroke-dasharray:4.55, 4.55;stroke-opacity:0.6"
         id="line50" />
      <circle
         cx="306.89999"
         cy="19.6"
         r="3.5599999"
         style="fill:#228b22;stroke:#228b22;stroke-width:0.71"
         id="circle50" />
      <circle
         cx="306.89999"
         cy="19.6"
         r="5.6900001"
         style="fill:#228b22;stroke:#228b22;stroke-width:0.71"
         id="circle51" />
      <rect
         x="434.51999"
         y="10.96"
         width="17.280001"
         height="17.280001"
         style="fill:#ffffff;stroke:none;stroke-width:1.07"
         id="rect51" />
      <line
         x1="436.23999"
         y1="19.6"
         x2="450.07001"
         y2="19.6"
         style="stroke:#8b4500;stroke-width:0.85;stroke-linecap:butt;stroke-dasharray:4.55, 4.55;stroke-opacity:0.6"
         id="line51" />
      <rect
         x="440"
         y="16.450001"
         width="6.3000002"
         height="6.3000002"
         style="fill:#8b4500;stroke:#8b4500;stroke-width:0.71"
         id="rect52" />
      <rect
         x="438.10999"
         y="14.56"
         width="10.08"
         height="10.08"
         style="fill:#8b4500;stroke:#8b4500;stroke-width:0.71"
         id="rect53" />
      <rect
         x="635.91"
         y="10.96"
         width="17.28"
         height="17.28"
         style="stroke-width: 1.07; stroke: none; fill: #FFFFFF;"
         id="rect54" />
      <line
         x1="637.64"
         y1="19.60"
         x2="651.46"
         y2="19.60"
         style="stroke-width: 0.85; stroke: #00FF7F; stroke-opacity: 0.60; stroke-dasharray: 4.55,4.55; stroke-linecap: butt;"
         id="line54" />
      <polygon
         points="644.55,14.07 649.34,22.36 639.76,22.36 "
         style="stroke-width: 0.71; stroke: #00FF7F; fill: #00FF7F;"
         id="polygon54" />
      <polygon
         points="644.55,10.75 652.21,24.02 636.89,24.02 "
         style="stroke-width: 0.71; stroke: #00FF7F; fill: #00FF7F;"
         id="polygon55" />
      <text
         x="363.01999"
         y="24.9"
         style="font-size:16px;font-family:'Times New Roman'"
         textLength="108.02"
         lengthAdjust="spacingAndGlyphs"
         id="text55"
         transform="translate(-42)">Secondary forest</text>
      <text
         x="658.67"
         y="24.90"
         style="font-size: 16.00px; font-family: &quot;Times New Roman&quot;;"
         textLength="47.14px"
         lengthAdjust="spacingAndGlyphs"
         id="text57">Pasture</text>
      <text
         xml:space="preserve"
         style="font-size:16px;line-height:0;font-family:'Times New Roman';-inkscape-font-specification:'Times New Roman, ';text-align:center;letter-spacing:-0.0075px;writing-mode:lr-tb;direction:ltr;text-anchor:middle;fill:#000000;stroke:#fffaff;stroke-width:2.72126;stroke-linecap:round;stroke-linejoin:round;stroke-miterlimit:4.1;paint-order:stroke fill markers"
         x="543.3277"
         y="23.596638"
         id="text58"><tspan
           sodipodi:role="line"
           id="tspan58"
           style="font-size:16px;stroke-width:2.72126"
           x="543.32397"
           y="23.596638">Cacao agroforestry system</tspan></text>
    </g>
  </g>
</svg>
